<svg width="200" xmlns="http://www.w3.org/2000/svg" viewBox="0 0 299.57 75.79" fill="#001428"><g><g><path d="M34.31 0a34.31 34.31 0 1 0 34.31 34.31A34.3 34.3 0 0 0 34.31 0zm20.95 51.65s-1.66-7.51-4.37-12c-1.47-2.45-3.74-4.44-6.77-4.38-2.13 0-4 1.21-6.29 4.44a53.28 53.28 0 0 0-3.53 6.87s-.83-1.93-1.8-3.84a23.08 23.08 0 0 0-1.73-3c-2.3-3.23-4.16-4.4-6.29-4.44-3-.06-5.3 1.93-6.76 4.37-2.71 4.5-4.37 12-4.37 12h-2.47L24.05 8.44l10.18 33.75.07.06.07-.06L44.55 8.44l13.18 43.21zM190.38 19.21a15.1 15.1 0 1 0 15.1 15.1 15.11 15.11 0 0 0-15.1-15.1zm0 24.54a9.44 9.44 0 1 1 9.45-9.44 9.44 9.44 0 0 1-9.45 9.44zm-24.58-6.14V24.87h7.3v-5.66h-7.3v-7.54h-5.66v25.94A11.82 11.82 0 0 0 172 49.41h1.2v-5.66H172a6.16 6.16 0 0 1-6.2-6.14zm75.2-18.4a15.1 15.1 0 1 0 15.1 15.1 15.11 15.11 0 0 0-15.1-15.1zm0 24.54a9.44 9.44 0 1 1 9.44-9.44 9.44 9.44 0 0 1-9.44 9.44zm43.44-24.54a15.1 15.1 0 1 0 9.67 26.68V49h5.41V34.75v-.44a15.11 15.11 0 0 0-15.04-15.1zm0 24.54a9.44 9.44 0 1 1 9.44-9.44 9.45 9.45 0 0 1-9.4 9.44zM209.27 31v18h5.65V31a6.16 6.16 0 0 1 6.15-6.15h2.69v-5.64h-2.69A11.82 11.82 0 0 0 209.27 31zm50.65 18h5.67V11.67h-5.67zM110.57 19.21a11.83 11.83 0 0 0-9 4.15A11.78 11.78 0 0 0 80.82 31v18h5.66V31a6.15 6.15 0 1 1 12.29 0v18h5.66V31a6.15 6.15 0 1 1 12.29 0v18h5.65V31a11.82 11.82 0 0 0-11.8-11.79zm30.73 0a15.1 15.1 0 1 0 15.06 15.1 15.12 15.12 0 0 0-15.06-15.1zm0 24.54a9.44 9.44 0 1 1 9.45-9.44 9.44 9.44 0 0 1-9.45 9.44zM92.87 73h-1.44L90 69.9h-6.41l-1.4 3.1h-1.37l5.4-11.92h1.25zm-6-10.37l-2.71 6h5.4zM98.92 61.19h1.34V71.8h6.66V73h-8zM112.18 72.1a3.62 3.62 0 0 0 2.76-1.23l.81.73a4.51 4.51 0 0 1-3.6 1.64 4.58 4.58 0 0 1-.15-9.14c2.59 0 4.08 2.07 4.08 4.64a2.89 2.89 0 0 1 0 .4h-6.98a3.06 3.06 0 0 0 3.08 2.96zm2.56-3.92c-.14-1.59-1-3-2.79-3a3 3 0 0 0-2.85 3zM119 73h-1.3v-8.71h1.3v1.52a3.3 3.3 0 0 1 3-1.71 3.19 3.19 0 0 1 3.35 3.5V73H124v-5.08a2.33 2.33 0 0 0-2.42-2.63A2.57 2.57 0 0 0 119 68zM131.4 73.24a4.49 4.49 0 0 1-4.53-4.55 4.56 4.56 0 1 1 4.53 4.55zm0-8a3.21 3.21 0 0 0-3.19 3.4 3.28 3.28 0 0 0 3.23 3.42 3.22 3.22 0 0 0 3.21-3.38 3.3 3.3 0 0 0-3.25-3.43zM143.63 64.29H145l-3.81 8.81h-1.15l-3.79-8.81h1.44l2.94 7.26zM149.89 73.24a4.49 4.49 0 0 1-4.53-4.55 4.56 4.56 0 1 1 4.53 4.55zm0-8a3.22 3.22 0 0 0-3.2 3.4 3.29 3.29 0 0 0 3.24 3.42 3.22 3.22 0 0 0 3.21-3.38 3.3 3.3 0 0 0-3.25-3.43zM166.18 73.24a6.13 6.13 0 0 1 0-12.25 6.15 6.15 0 0 1 4.62 1.88l-.91 1a5.15 5.15 0 0 0-3.72-1.63 4.9 4.9 0 0 0 0 9.78 5.11 5.11 0 0 0 3.83-1.73l.88.87a6.17 6.17 0 0 1-4.7 2.08zM176.18 73.24a4.49 4.49 0 0 1-4.53-4.55 4.56 4.56 0 1 1 4.53 4.55zm0-8a3.22 3.22 0 0 0-3.2 3.4 3.29 3.29 0 0 0 3.24 3.42 3.22 3.22 0 0 0 3.21-3.38 3.3 3.3 0 0 0-3.25-3.43zM192.46 64.1c2 0 3.24 1.36 3.24 3.52V73h-1.3v-5.08c0-1.69-.84-2.63-2.27-2.63a2.44 2.44 0 0 0-2.41 2.7v5h-1.29v-5.1c0-1.64-.86-2.6-2.25-2.6a2.53 2.53 0 0 0-2.44 2.71v5h-1.3v-8.71h1.3v1.47a3.22 3.22 0 0 1 2.83-1.66 3 3 0 0 1 2.81 1.74 3.48 3.48 0 0 1 3.08-1.74zM202.51 73.22a3.93 3.93 0 0 1-3.35-1.86v4.38h-1.31V64.29h1.31v1.76a3.93 3.93 0 0 1 3.35-2 4.58 4.58 0 0 1 0 9.12zm-.24-8a3.4 3.4 0 0 0 0 6.78 3.09 3.09 0 0 0 3.08-3.38 3.15 3.15 0 0 0-3.08-3.35zM208.92 66l-.39-1.06a7.2 7.2 0 0 1 3.18-.73c2.38 0 3.72 1.22 3.72 3.52V73h-1.25v-1.29a3.84 3.84 0 0 1-3.18 1.51c-1.62 0-3.26-.91-3.26-2.74s1.52-2.84 3.74-2.84a9.33 9.33 0 0 1 2.69.37v-.31c0-1.57-1-2.38-2.61-2.38a6.09 6.09 0 0 0-2.64.68zm.15 4.47c0 1.12 1 1.76 2.2 1.76 1.61 0 2.92-1 2.92-2.37V69a9.31 9.31 0 0 0-2.57-.37c-1.62-.03-2.55.68-2.55 1.8zM218.83 73h-1.3v-8.71h1.3v1.52a3.3 3.3 0 0 1 3-1.71 3.19 3.19 0 0 1 3.35 3.5V73h-1.3v-5.08a2.33 2.33 0 0 0-2.42-2.63 2.57 2.57 0 0 0-2.63 2.71zM231.28 73.32c-.74 1.81-1.59 2.47-2.91 2.47a4 4 0 0 1-1.86-.44l.44-1a2.72 2.72 0 0 0 1.37.32c.78 0 1.27-.4 1.8-1.64l-4-8.71h1.44l3.18 7.29 2.81-7.29H235z"></path></g></g></svg>